# Blender v2.56 (sub 0) OBJ File: 'ucmuntitled.blend'
# www.blender.org
o Plane_Plane.001
v 0.849804 1.986571 0.000000
v 1.049427 -1.889881 0.000000
v -1.049427 -1.889880 0.000000
v -1.070773 1.893006 0.000000
v -1.779300 1.165192 0.000000
v -1.573454 -1.408463 0.000000
v -2.097482 -0.383622 0.000000
v 1.610884 -1.413918 0.000000
v 1.723164 1.067722 0.000000
v 2.031978 -0.421049 0.000000
v -0.209983 -2.385830 0.000000
v 0.209982 -2.385830 0.000000
v -0.291222 2.399093 0.000000
v 0.236640 2.399093 0.000000
v 1.314554 1.681531 0.000000
v -1.373575 1.655413 0.000000
v -2.022600 0.512421 0.000000
v 1.971137 0.444972 0.000000
v 1.971137 0.444972 -0.311699
v -2.022600 0.512421 -0.311699
v -1.373575 1.655413 -0.311699
v 1.314554 1.681531 -0.311699
v 0.236640 2.399093 -0.311699
v -0.291222 2.399093 -0.311699
v 0.209982 -2.385830 -0.311699
v -0.209983 -2.385830 -0.311699
v 2.031978 -0.421049 -0.311699
v 1.723164 1.067722 -0.311699
v 1.610884 -1.413918 -0.311699
v -2.097482 -0.383622 -0.311699
v -1.573454 -1.408463 -0.311699
v -1.779300 1.165192 -0.311699
v -1.070773 1.893006 -0.311699
v -1.049427 -1.889880 -0.311699
v 1.049427 -1.889881 -0.311699
v 0.849804 1.986571 -0.311699
vt 0.727131 0.102203
vt 0.284951 0.102203
vt 0.550279 -0.001937
vt 0.461802 -0.001937
vt 0.845417 0.202146
vt 0.869071 0.723243
vt 0.131184 0.743710
vt 0.174551 0.203291
vt 0.685075 0.916184
vt 0.280454 0.896537
vt 0.782987 0.852131
vt 0.216661 0.846647
vt 0.079926 0.606640
vt 0.064151 0.418488
vt 0.934131 0.410629
vt 0.921314 0.592478
vt 0.444687 1.002806
vt 0.555895 1.002806
vn -0.000000 -0.000000 1.000000
vn -0.000000 -0.000000 -1.000000
vn -0.676533 -0.736412 0.000000
vn -0.890357 -0.455263 0.000000
vn 0.646641 -0.762794 0.000000
vn 0.920623 -0.390453 0.000000
vn -0.508665 -0.860965 0.000000
vn 0.000000 -1.000000 0.000000
vn 0.508664 -0.860965 0.000000
vn 0.558204 0.829704 -0.000000
vn 0.000000 1.000000 -0.000000
vn -0.544519 0.838749 0.000000
vn 0.548717 0.836008 -0.000000
vn 0.832423 0.554141 -0.000000
vn -0.617303 0.786726 0.000000
vn -0.770376 0.637590 0.000000
vn -0.937030 0.349249 0.000000
vn -0.996526 0.083279 0.000000
vn 0.929055 0.369941 -0.000000
vn 0.997541 0.070081 -0.000000
usemtl Material_UCM.png
s off
f 2/1/1 3/2/1 12/3/1
f 3/2/1 11/4/1 12/3/1
f 2/1/1 8/5/1 9/6/1
f 3/2/1 5/7/1 6/8/1
f 1/9/1 4/10/1 3/2/1
f 1/9/1 3/2/1 2/1/1
f 9/6/1 15/11/1 2/1/1
f 15/11/1 1/9/1 2/1/1
f 4/10/1 16/12/1 3/2/1
f 16/12/1 5/7/1 3/2/1
f 5/7/1 17/13/1 6/8/1
f 17/13/1 7/14/1 6/8/1
f 10/15/1 18/16/1 8/5/1
f 18/16/1 9/6/1 8/5/1
f 4/10/1 1/9/1 13/17/1
f 1/9/1 14/18/1 13/17/1
f 25/3/2 34/2/2 35/1/2
f 25/3/2 26/4/2 34/2/2
f 28/6/2 29/5/2 35/1/2
f 31/8/2 32/7/2 34/2/2
f 34/2/2 33/10/2 36/9/2
f 35/1/2 34/2/2 36/9/2
f 35/1/2 22/11/2 28/6/2
f 35/1/2 36/9/2 22/11/2
f 34/2/2 21/12/2 33/10/2
f 34/2/2 32/7/2 21/12/2
f 31/8/2 20/13/2 32/7/2
f 31/8/2 30/14/2 20/13/2
f 29/5/2 19/16/2 27/15/2
f 29/5/2 28/6/2 19/16/2
f 24/17/2 36/9/2 33/10/2
f 24/17/2 23/18/2 36/9/2
f 3/2/3 6/8/3 31/8/3
f 3/2/3 31/8/3 34/2/3
f 6/8/4 7/14/4 30/14/4
f 6/8/4 30/14/4 31/8/4
f 8/5/5 2/1/5 35/1/5
f 8/5/5 35/1/5 29/5/5
f 10/15/6 8/5/6 29/5/6
f 10/15/6 29/5/6 27/15/6
f 11/4/7 3/2/7 34/2/7
f 11/4/7 34/2/7 26/4/7
f 12/3/8 11/4/8 26/4/8
f 12/3/8 26/4/8 25/3/8
f 2/1/9 12/3/9 25/3/9
f 2/1/9 25/3/9 35/1/9
f 14/18/10 1/9/10 36/9/10
f 14/18/10 36/9/10 23/18/10
f 13/17/11 14/18/11 23/18/11
f 13/17/11 23/18/11 24/17/11
f 4/10/12 13/17/12 24/17/12
f 4/10/12 24/17/12 33/10/12
f 1/9/13 15/11/13 22/11/13
f 1/9/13 22/11/13 36/9/13
f 15/11/14 9/6/14 28/6/14
f 15/11/14 28/6/14 22/11/14
f 16/12/15 4/10/15 33/10/15
f 16/12/15 33/10/15 21/12/15
f 5/7/16 16/12/16 21/12/16
f 5/7/16 21/12/16 32/7/16
f 17/13/17 5/7/17 32/7/17
f 17/13/17 32/7/17 20/13/17
f 7/14/18 17/13/18 20/13/18
f 7/14/18 20/13/18 30/14/18
f 9/6/19 18/16/19 19/16/19
f 9/6/19 19/16/19 28/6/19
f 18/16/20 10/15/20 27/15/20
f 18/16/20 27/15/20 19/16/20
