# Blender v2.56 (sub 0) OBJ File: 'ufo.blend'
# www.blender.org
o Circle
v 0.000000 0.388892 0.152993
v 0.200284 0.388892 0.113155
v 0.370076 0.388892 -0.000297
v 0.483527 0.388892 -0.170089
v 0.523366 0.388892 -0.370373
v 0.483527 0.388892 -0.570657
v 0.370076 0.388892 -0.740449
v 0.200284 0.388892 -0.853900
v 0.000000 0.388892 -0.893739
v -0.200283 0.388892 -0.853900
v -0.370076 0.388892 -0.740449
v -0.483527 0.388891 -0.570657
v -0.523366 0.388891 -0.370373
v -0.483527 0.388891 -0.170089
v -0.370076 0.388892 -0.000297
v -0.200283 0.388892 0.113155
v -0.276034 0.304013 0.296034
v -0.510045 0.304013 0.139673
v -0.666407 0.304013 -0.094338
v -0.721313 0.304013 -0.370373
v -0.666407 0.304013 -0.646408
v -0.510045 0.304013 -0.880419
v -0.276034 0.304013 -1.036780
v 0.000000 0.304014 -1.091686
v 0.276035 0.304014 -1.036779
v 0.510045 0.304014 -0.880418
v 0.666407 0.304014 -0.646408
v 0.721313 0.304014 -0.370373
v 0.666407 0.304014 -0.094338
v 0.510045 0.304014 0.139673
v 0.276035 0.304014 0.296034
v 0.000000 0.304013 0.350940
v 0.000000 0.226852 0.350940
v 0.276035 0.226852 0.296034
v 0.510046 0.226852 0.139673
v 0.666407 0.226852 -0.094338
v 0.721313 0.226852 -0.370373
v 0.666407 0.226852 -0.646408
v 0.510046 0.226852 -0.880418
v 0.276035 0.226852 -1.036779
v 0.000000 0.226852 -1.091686
v -0.276034 0.226851 -1.036780
v -0.510045 0.226851 -0.880419
v -0.666406 0.226851 -0.646408
v -0.721313 0.226851 -0.370373
v -0.666406 0.226851 -0.094338
v -0.510045 0.226851 0.139673
v -0.276034 0.226851 0.296034
v -0.499654 0.010798 0.835900
v -0.923241 0.010798 0.552869
v -1.206273 0.010798 0.129282
v -1.305660 0.010798 -0.370373
v -1.206273 0.010798 -0.870028
v -0.923241 0.010798 -1.293615
v -0.499654 0.010798 -1.576646
v 0.000000 0.010798 -1.676033
v 0.499655 0.010798 -1.576646
v 0.923241 0.010798 -1.293614
v 1.206273 0.010798 -0.870028
v 1.305660 0.010798 -0.370373
v 1.206273 0.010798 0.129282
v 0.923241 0.010798 0.552868
v 0.499655 0.010798 0.835900
v 0.000000 0.010798 0.935287
v 0.000000 -0.305566 0.385140
v 0.289122 -0.305566 0.327630
v 0.534228 -0.305566 0.163855
v 0.698003 -0.305566 -0.081251
v 0.755513 -0.305566 -0.370373
v 0.698003 -0.305566 -0.659495
v 0.534228 -0.305566 -0.904601
v 0.289122 -0.305566 -1.068376
v 0.000000 -0.305566 -1.125886
v -0.289122 -0.305566 -1.068376
v -0.534228 -0.305566 -0.904601
v -0.698003 -0.305566 -0.659495
v -0.755512 -0.305566 -0.370373
v -0.698003 -0.305566 -0.081251
v -0.534228 -0.305566 0.163855
v -0.289122 -0.305566 0.327630
v -0.287642 -0.729957 -0.658015
v 0.155671 -0.729957 -0.746195
v 0.287642 -0.729957 -0.658015
v 0.406788 -0.729957 -0.370373
v 0.287642 -0.729957 -0.082731
v 0.000000 -0.729957 0.036414
v 0.155671 -0.729957 0.005449
v 0.375823 -0.729957 -0.214702
v 0.375823 -0.729957 -0.526044
v 0.000000 -0.729957 -0.777160
v -0.155670 -0.729957 -0.746195
v -0.375822 -0.729957 -0.526044
v -0.406787 -0.729957 -0.370373
v -0.375822 -0.729957 -0.214702
v -0.287642 -0.729957 -0.082731
v -0.155670 -0.729957 0.005450
v 0.000000 -0.729957 -0.370373
v 0.000000 0.388892 -0.370373
vt 0.296801 0.767581
vt 0.306327 0.706768
vt 0.320870 0.767093
vt 0.274685 0.758800
vt 0.256799 0.743158
vt 0.246290 0.721597
vt 0.244869 0.697491
vt 0.252807 0.674492
vt 0.269848 0.657203
vt 0.291506 0.646600
vt 0.315776 0.645052
vt 0.338322 0.654081
vt 0.356578 0.670007
vt 0.366174 0.692240
vt 0.367885 0.716401
vt 0.358997 0.738945
vt 0.343123 0.757331
vt 0.595335 0.275977
vt 0.692368 0.290375
vt 0.597166 0.314139
vt 0.613270 0.348651
vt 0.641498 0.374177
vt 0.677314 0.387195
vt 0.715463 0.385611
vt 0.750190 0.369622
vt 0.776269 0.341563
vt 0.789636 0.305529
vt 0.787920 0.267002
vt 0.772160 0.231793
vt 0.743600 0.205881
vt 0.707116 0.193119
vt 0.668545 0.194659
vt 0.633748 0.211014
vt 0.608379 0.239892
vt 0.344122 0.858598
vt 0.399245 0.832897
vt 0.440172 0.787797
vt 0.460957 0.730585
vt 0.458152 0.669799
vt 0.432603 0.614621
vt 0.387873 0.573488
vt 0.330965 0.552302
vt 0.270351 0.554526
vt 0.214848 0.579874
vt 0.173069 0.624293
vt 0.151676 0.681252
vt 0.153925 0.742298
vt 0.179060 0.798431
vt 0.224744 0.840392
vt 0.282883 0.861830
vt 0.262308 0.996620
vt 0.376996 0.990775
vt 0.153249 0.957610
vt 0.068361 0.878518
vt 0.020783 0.773437
vt 0.017869 0.658615
vt 0.058546 0.552601
vt 0.136131 0.469872
vt 0.239868 0.423283
vt 0.352506 0.419692
vt 0.458225 0.458722
vt 0.541188 0.535310
vt 0.589139 0.637689
vt 0.594178 0.750767
vt 0.556015 0.857507
vt 0.479790 0.941577
vt 0.538904 0.268990
vt 0.441010 0.141417
vt 0.558411 0.210480
vt 0.404866 0.249491
vt 0.599728 0.165719
vt 0.516860 0.056136
vt 0.619777 0.005555
vt 0.653505 0.139245
vt 0.735870 -0.001816
vt 0.715754 0.135080
vt 0.774225 0.157122
vt 0.845317 0.038318
vt 0.818208 0.198255
vt 0.930182 0.116662
vt 0.979061 0.221495
vt 0.844815 0.253564
vt 0.846171 0.315855
vt 0.982362 0.337736
vt 0.824149 0.372660
vt 0.940486 0.445252
vt 0.782443 0.416260
vt 0.860875 0.527659
vt 0.727603 0.440919
vt 0.756977 0.573018
vt 0.667395 0.442900
vt 0.645066 0.575427
vt 0.611592 0.421582
vt 0.541378 0.535486
vt 0.568540 0.381848
vt 0.460489 0.460601
vt 0.412679 0.361367
vt 0.542792 0.328961
vt 0.558016 0.324896
vt 0.554906 0.271025
vt 0.580251 0.373134
vt 0.619872 0.408298
vt 0.670126 0.427193
vt 0.724069 0.425362
vt 0.773281 0.403180
vt 0.810603 0.363944
vt 0.830086 0.312993
vt 0.827787 0.257586
vt 0.805999 0.207170
vt 0.765637 0.170951
vt 0.713164 0.152565
vt 0.657691 0.154922
vt 0.608743 0.177732
vt 0.573363 0.219253
vn -0.225471 -0.860744 0.456343
vn 0.000000 -1.000000 0.000000
vn -0.033662 -0.860744 0.507889
vn -0.300363 -0.905271 0.300363
vn -0.456343 -0.860744 0.225471
vn -0.507889 -0.860744 0.033662
vn -0.482131 -0.860744 -0.163244
vn -0.396527 -0.827937 -0.396527
vn -0.162542 -0.905271 -0.392438
vn -0.033662 -0.860744 -0.507889
vn 0.214576 -0.827937 -0.518082
vn 0.300363 -0.905271 -0.300363
vn 0.518082 -0.827937 -0.214576
vn 0.424757 -0.905271 0.000000
vn 0.518082 -0.827937 0.214576
vn 0.300363 -0.905271 0.300363
vn 0.214576 -0.827937 0.518082
vn 0.015961 0.970428 0.240852
vn 0.000000 1.000000 0.000000
vn -0.077395 0.970428 0.228614
vn -0.189001 0.963591 0.189001
vn -0.228614 0.970428 0.077395
vn -0.240852 0.970428 -0.015961
vn -0.216407 0.970428 -0.106906
vn -0.159001 0.970428 -0.181585
vn -0.077395 0.970428 -0.228614
vn 0.015961 0.970428 -0.240852
vn 0.076846 0.979614 -0.185553
vn 0.189001 0.963591 -0.189001
vn 0.228614 0.970428 -0.077395
vn 0.200842 0.979614 0.000000
vn 0.228614 0.970428 0.077395
vn 0.189001 0.963591 0.189001
vn 0.076846 0.979614 0.185553
vn 0.031098 -0.739219 0.672689
vn 0.228858 -0.801416 0.552538
vn 0.488479 -0.723014 0.488479
vn 0.552538 -0.801416 0.228858
vn 0.690817 -0.723014 0.000000
vn 0.552538 -0.801416 -0.228858
vn 0.488479 -0.723014 -0.488479
vn 0.228858 -0.801416 -0.552538
vn 0.009064 -0.763634 -0.645558
vn -0.264351 -0.723014 -0.638234
vn -0.422895 -0.801416 -0.422895
vn -0.592944 -0.763634 -0.255440
vn -0.672689 -0.739219 -0.031098
vn -0.586200 -0.780023 0.218757
vn -0.488479 -0.723014 0.488479
vn -0.218757 -0.780023 0.586200
vn -0.365184 0.470077 0.803491
vn -0.022248 -0.208167 0.977813
vn -0.707175 -0.208167 0.675680
vn -0.920408 0.086428 0.381237
vn -0.996246 0.086428 0.000000
vn -0.893185 0.086245 -0.441298
vn -0.704459 0.086428 -0.704459
vn -0.394757 -0.208167 -0.894864
vn 0.011750 0.086428 -0.996185
vn 0.291696 0.647237 -0.704215
vn 0.608966 -0.508194 -0.608966
vn 0.803491 0.470077 -0.365184
vn 0.996246 0.086428 0.000000
vn 0.803491 0.470077 0.365184
vn 0.608966 -0.508194 0.608966
vn 0.291696 0.647237 0.704215
vn -0.025910 0.576128 0.816919
vn 0.354625 0.375774 0.856136
vn 0.471206 0.745567 0.471206
vn 0.744804 0.576128 0.336558
vn 0.926695 0.375774 0.000000
vn 0.744804 0.576128 -0.336558
vn 0.471206 0.745567 -0.471206
vn 0.354625 0.375774 -0.856136
vn -0.025910 0.576128 -0.816919
vn -0.336558 0.576128 -0.744804
vn -0.558519 0.653890 -0.510330
vn -0.774590 0.575488 -0.262276
vn -0.888028 0.457259 0.047670
vn -0.685232 0.653890 0.320719
vn -0.504349 0.683187 0.528031
vn -0.336558 0.576128 0.744804
vn -0.296457 0.554735 0.777398
vn 0.023591 0.554735 0.831660
vn -0.658956 0.362651 0.658956
vn -0.777398 0.554735 0.296457
vn -0.831660 0.554735 -0.023591
vn -0.759331 0.554735 -0.340068
vn -0.571398 0.554735 -0.604755
vn -0.296457 0.554735 -0.777398
vn 0.023591 0.554735 -0.831660
vn 0.265572 0.719932 -0.641194
vn 0.658956 0.362651 -0.658956
vn 0.777398 0.554735 -0.296457
vn 0.694021 0.719932 0.000000
vn 0.777398 0.554735 0.296457
vn 0.658956 0.362651 0.658956
vn 0.265572 0.719932 0.641194
usemtl None_untitled
s 1
f 96/1/1 97/2/2 86/3/3
f 95/4/4 97/2/2 96/1/1
f 95/4/4 94/5/5 97/2/2
f 94/5/5 93/6/6 97/2/2
f 93/6/6 92/7/7 97/2/2
f 92/7/7 81/8/8 97/2/2
f 81/8/8 91/9/9 97/2/2
f 91/9/9 90/10/10 97/2/2
f 90/10/10 82/11/11 97/2/2
f 83/12/12 97/2/2 82/11/11
f 83/12/12 89/13/13 97/2/2
f 89/13/13 84/14/14 97/2/2
f 88/15/15 97/2/2 84/14/14
f 85/16/16 97/2/2 88/15/15
f 85/16/16 87/17/17 97/2/2
f 86/3/3 97/2/2 87/17/17
f 1/18/18 98/19/19 16/20/20
f 16/20/20 98/19/19 15/21/21
f 14/22/22 15/21/21 98/19/19
f 13/23/23 14/22/22 98/19/19
f 12/24/24 13/23/23 98/19/19
f 11/25/25 12/24/24 98/19/19
f 10/26/26 11/25/25 98/19/19
f 9/27/27 10/26/26 98/19/19
f 8/28/28 9/27/27 98/19/19
f 8/28/28 98/19/19 7/29/29
f 6/30/30 7/29/29 98/19/19
f 5/31/31 6/30/30 98/19/19
f 5/31/31 98/19/19 4/32/32
f 4/32/32 98/19/19 3/33/33
f 2/34/34 3/33/33 98/19/19
f 98/19/19 1/18/18 2/34/34
f 65/35/35 87/17/17 66/36/36
f 65/35/35 86/3/3 87/17/17
f 67/37/37 66/36/36 87/17/17
f 67/37/37 87/17/17 85/16/16
f 67/37/37 88/15/15 68/38/38
f 67/37/37 85/16/16 88/15/15
f 68/38/38 88/15/15 69/39/39
f 69/39/39 88/15/15 84/14/14
f 70/40/40 69/39/39 89/13/13
f 69/39/39 84/14/14 89/13/13
f 71/41/41 70/40/40 89/13/13
f 71/41/41 89/13/13 83/12/12
f 71/41/41 82/11/11 72/42/42
f 71/41/41 83/12/12 82/11/11
f 73/43/43 72/42/42 82/11/11
f 73/43/43 82/11/11 90/10/10
f 74/44/44 73/43/43 90/10/10
f 74/44/44 90/10/10 91/9/9
f 75/45/45 74/44/44 81/8/8
f 74/44/44 91/9/9 81/8/8
f 76/46/46 75/45/45 81/8/8
f 76/46/46 81/8/8 92/7/7
f 77/47/47 76/46/46 92/7/7
f 77/47/47 92/7/7 93/6/6
f 78/48/48 77/47/47 93/6/6
f 78/48/48 93/6/6 94/5/5
f 79/49/49 78/48/48 94/5/5
f 79/49/49 94/5/5 95/4/4
f 79/49/49 96/1/1 80/50/50
f 79/49/49 95/4/4 96/1/1
f 80/50/50 86/3/3 65/35/35
f 80/50/50 96/1/1 86/3/3
f 49/51/51 80/50/50 64/52/52
f 64/52/52 80/50/50 65/35/35
f 50/53/53 80/50/50 49/51/51
f 50/53/53 79/49/49 80/50/50
f 50/53/53 51/54/54 78/48/48
f 50/53/53 78/48/48 79/49/49
f 51/54/54 52/55/55 78/48/48
f 52/55/55 77/47/47 78/48/48
f 52/55/55 53/56/56 76/46/46
f 52/55/55 76/46/46 77/47/47
f 53/56/56 54/57/57 75/45/45
f 53/56/56 75/45/45 76/46/46
f 54/57/57 55/58/58 75/45/45
f 55/58/58 74/44/44 75/45/45
f 55/58/58 56/59/59 73/43/43
f 55/58/58 73/43/43 74/44/44
f 56/59/59 57/60/60 72/42/42
f 56/59/59 72/42/42 73/43/43
f 58/61/61 72/42/42 57/60/60
f 58/61/61 71/41/41 72/42/42
f 58/61/61 59/62/62 70/40/40
f 58/61/61 70/40/40 71/41/41
f 59/62/62 60/63/63 70/40/40
f 60/63/63 69/39/39 70/40/40
f 61/64/64 68/38/38 60/63/63
f 60/63/63 68/38/38 69/39/39
f 62/65/65 68/38/38 61/64/64
f 62/65/65 67/37/37 68/38/38
f 62/65/65 63/66/66 66/36/36
f 62/65/65 66/36/36 67/37/37
f 64/52/52 66/36/36 63/66/66
f 64/52/52 65/35/35 66/36/36
f 33/67/67 63/68/66 34/69/68
f 33/67/67 64/70/52 63/68/66
f 35/71/69 34/69/68 63/68/66
f 35/71/69 63/68/66 62/72/65
f 35/71/69 61/73/64 36/74/70
f 35/71/69 62/72/65 61/73/64
f 36/74/70 60/75/63 37/76/71
f 36/74/70 61/73/64 60/75/63
f 38/77/72 37/76/71 60/75/63
f 38/77/72 60/75/63 59/78/62
f 39/79/73 38/77/72 59/78/62
f 39/79/73 59/78/62 58/80/61
f 39/79/73 57/81/60 40/82/74
f 39/79/73 58/80/61 57/81/60
f 41/83/75 40/82/74 57/81/60
f 41/83/75 57/81/60 56/84/59
f 42/85/76 41/83/75 56/84/59
f 42/85/76 56/84/59 55/86/58
f 43/87/77 42/85/76 55/86/58
f 43/87/77 55/86/58 54/88/57
f 44/89/78 43/87/77 53/90/56
f 43/87/77 54/88/57 53/90/56
f 45/91/79 44/89/78 52/92/55
f 44/89/78 53/90/56 52/92/55
f 46/93/80 45/91/79 52/92/55
f 46/93/80 52/92/55 51/94/54
f 47/95/81 46/93/80 50/96/53
f 46/93/80 51/94/54 50/96/53
f 47/95/81 49/97/51 48/98/82
f 47/95/81 50/96/53 49/97/51
f 48/98/82 64/70/52 33/67/67
f 48/98/82 49/97/51 64/70/52
f 17/99/83 33/67/67 32/100/84
f 17/99/83 48/98/82 33/67/67
f 18/101/85 48/98/82 17/99/83
f 18/101/85 47/95/81 48/98/82
f 18/101/85 19/102/86 46/93/80
f 18/101/85 46/93/80 47/95/81
f 19/102/86 20/103/87 45/91/79
f 19/102/86 45/91/79 46/93/80
f 20/103/87 21/104/88 44/89/78
f 20/103/87 44/89/78 45/91/79
f 21/104/88 22/105/89 43/87/77
f 21/104/88 43/87/77 44/89/78
f 22/105/89 23/106/90 42/85/76
f 22/105/89 42/85/76 43/87/77
f 23/106/90 24/107/91 41/83/75
f 23/106/90 41/83/75 42/85/76
f 24/107/91 25/108/92 40/82/74
f 24/107/91 40/82/74 41/83/75
f 26/109/93 40/82/74 25/108/92
f 26/109/93 39/79/73 40/82/74
f 26/109/93 27/110/94 38/77/72
f 26/109/93 38/77/72 39/79/73
f 27/110/94 28/111/95 37/76/71
f 27/110/94 37/76/71 38/77/72
f 29/112/96 37/76/71 28/111/95
f 29/112/96 36/74/70 37/76/71
f 30/113/97 36/74/70 29/112/96
f 30/113/97 35/71/69 36/74/70
f 30/113/97 31/114/98 34/69/68
f 30/113/97 34/69/68 35/71/69
f 32/100/84 34/69/68 31/114/98
f 32/100/84 33/67/67 34/69/68
f 1/18/18 31/114/98 2/34/34
f 1/18/18 32/100/84 31/114/98
f 3/33/33 2/34/34 31/114/98
f 3/33/33 31/114/98 30/113/97
f 3/33/33 29/112/96 4/32/32
f 3/33/33 30/113/97 29/112/96
f 4/32/32 28/111/95 5/31/31
f 4/32/32 29/112/96 28/111/95
f 6/30/30 5/31/31 28/111/95
f 6/30/30 28/111/95 27/110/94
f 7/29/29 6/30/30 27/110/94
f 7/29/29 27/110/94 26/109/93
f 7/29/29 25/108/92 8/28/28
f 7/29/29 26/109/93 25/108/92
f 9/27/27 8/28/28 25/108/92
f 9/27/27 25/108/92 24/107/91
f 10/26/26 9/27/27 24/107/91
f 10/26/26 24/107/91 23/106/90
f 11/25/25 10/26/26 23/106/90
f 11/25/25 23/106/90 22/105/89
f 12/24/24 11/25/25 22/105/89
f 12/24/24 22/105/89 21/104/88
f 13/23/23 12/24/24 21/104/88
f 13/23/23 21/104/88 20/103/87
f 14/22/22 13/23/23 20/103/87
f 14/22/22 20/103/87 19/102/86
f 15/21/21 14/22/22 19/102/86
f 15/21/21 19/102/86 18/101/85
f 15/21/21 17/99/83 16/20/20
f 15/21/21 18/101/85 17/99/83
f 32/100/84 1/18/18 16/20/20
f 16/20/20 17/99/83 32/100/84
